<svg xmlns="http://www.w3.org/2000/svg" viewBox="0 0 170 95">
<!-- SVG created with Arrow, by QuiverAI (https://quiver.ai) -->
  <style type="text/css">.cls-0 {fill:#05C68E;}</style>
  <path class="cls-0" d="m163.7 0c-2.6 0-4.5 2-4.5 4.5 0 1.9 1.4 3.8 3.2 4.4 2.9 0.7 5.5-1.3 5.5-4.2 0-2.5-1.9-4.5-4.2-4.7z"/>
  <path class="cls-0" d="m152.3 33.9c-2.4-0.5-3.3 1.4-2.8 1.2-0.9 2.1 0.8 4.7 3.4 4.4 1.2-0.2 2.4-1.4 2.4-2.8 0-1.2-0.9-2.6-2.4-2.8h-0.6z"/>
  <path class="cls-0" d="m126.9 16.5c-1.5 0-3.8 2.2-3.4 3.8 0.2 1.4 1.3 2.7 3 2.7s3-1.3 3-3.2c0.1-1.7-1.5-3.3-2.6-3.3z"/>
  <path class="cls-0" d="m94.5 27.2c-1.4 0.1-2.9 1.5-2.9 3.1 0 1.7 1.2 3.3 3.1 3.3 1.7 0 3-1.4 3-3.2 0-1.9-1.7-3.2-3.2-3.2z"/>
  <path class="cls-0" d="m46.1 42.9c-1.4 0-2.7 1.6-2.6 3.2 0 1.6 1.4 2.8 2.8 2.8 1.8 0.1 3.1-1.4 3.1-3-0.1-1.9-1.3-3.1-3-3h-0.3z"/>
  <path class="cls-0" d="m24.2 64.3c-1.4 0.1-2.7 1.5-2.6 2.9 0 1.6 1.3 2.8 2.7 2.8 1.5 0 2.9-1.2 2.9-2.7 0.1-1.7-1.3-3.2-3-3z"/>
  <path class="cls-0" d="m69.8 47.6c-1.4 0-2.8 1.3-2.8 3 0 1.5 1.2 2.9 2.9 2.9 1.5 0 2.8-1.3 2.8-3 0-1.4-1.2-2.9-2.9-2.9z"/>
  <path class="cls-0" d="m113 44.5c-1.4 0-2.9 1.3-2.9 2.9 0 1.5 1.2 2.9 2.7 2.9 1.8 0.1 3.1-1.3 3.1-3 0-1.4-1.3-2.8-2.9-2.8z"/>
  <path class="cls-0" d="m92.2 62.4c-1.5 0.1-2.9 1.4-2.8 3 0 1.4 1.2 2.7 2.7 2.6 1.7 0 3-1.2 3-2.9 0-1.5-1.3-2.8-2.9-2.7z"/>
  <path class="cls-0" d="m74.3 77.7c-1.5 0.1-2.8 1.4-2.8 3 0.1 1.5 1.3 3.1 3.1 3.1 1.5 0 2.8-1.3 2.8-2.9 0-1.8-1.4-3.2-3.1-3.2z"/>
  <path class="cls-0" d="m51.9 80.4c-1.4 0.2-2.7 1.6-2.5 3.2 0.2 1.5 1.3 2.7 3.1 2.6 1.6 0 2.7-1.3 2.7-2.9 0-1.5-1.3-3-3.3-2.9z"/>
  <path class="cls-0" d="m134.9 55.5c-1.4 0.1-2.8 1.6-2.6 3.2 0.2 1.5 1.2 2.7 3 2.7 1.6 0 2.7-1.3 2.8-2.9 0-1.7-1.5-3.2-3.2-3z"/>
  <path class="cls-0" d="m6.4 85.8c-2.5 0-4.4 2-4.4 4.7 0 2 1.8 4.6 4.6 4.6 2.4 0.1 4.2-1.8 4.1-2.1 1.7-2.4-0.1-7.2-4.3-7.2z"/>
</svg>