<?xml version="1.0" encoding="UTF-8"?>
<svg version="1.1" xmlns="http://www.w3.org/2000/svg" width="512" height="512">
<path d="M0 0 C1.216875 -0.03738281 2.43375 -0.07476562 3.6875 -0.11328125 C7 0.3125 7 0.3125 9.40625 2.08203125 C11.08605992 4.4329417 11.54445027 5.46768265 11.5 8.3125 C11.5103125 8.9725 11.520625 9.6325 11.53125 10.3125 C10.73324507 13.31675387 9.46640638 14.43692087 7 16.3125 C3.5390625 17.25390625 3.5390625 17.25390625 -0.375 17.875 C-5.45816097 18.69502897 -9.54581127 19.66824596 -14 22.3125 C-14.33 22.9725 -14.66 23.6325 -15 24.3125 C-14.28199219 24.57675781 -13.56398437 24.84101563 -12.82421875 25.11328125 C-9.93131895 26.34166332 -7.46909005 27.82477655 -4.8125 29.5 C31.22152844 50.63703375 76.96754064 51.09920932 116.5625 41.125 C130.39886938 37.43194199 143.69088066 31.61498878 156 24.3125 C156 23.6525 156 22.9925 156 22.3125 C149.95271572 19.1666905 144.48176267 17.70928564 137.69921875 17 C134.36741768 16.15137918 133.07733143 15.02416806 131 12.3125 C130.46875 10.3125 130.46875 10.3125 130.5 8.3125 C130.48453125 7.3225 130.48453125 7.3225 130.46875 6.3125 C131.26226852 3.32513614 132.54227943 2.15579043 135 0.3125 C145.97278745 -1.61056584 156.68540544 1.34148416 165.9375 7.25 C169.29700998 9.66691366 172.21992178 12.23187279 175 15.3125 C175.48082031 15.78945312 175.96164062 16.26640625 176.45703125 16.7578125 C183.8124541 24.4670405 187.10176895 34.84249421 187.3125 45.3125 C187.36857422 47.1378125 187.36857422 47.1378125 187.42578125 49 C187 52.3125 187 52.3125 185.23046875 54.71875 C182.8795583 56.39855992 181.84481735 56.85695027 179 56.8125 C178.34 56.8228125 177.68 56.833125 177 56.84375 C174.03759816 56.05686201 172.86542186 54.71717658 171 52.3125 C170.20703125 49.3671875 170.20703125 49.3671875 169.8125 46.1875 C169.36767491 42.10900798 169.36767491 42.10900798 168 38.3125 C166.94425781 38.9415625 165.88851562 39.570625 164.80078125 40.21875 C149.33109019 49.24288414 133.58559477 55.43342868 116.1875 59.6875 C115.21095459 59.92629883 114.23440918 60.16509766 113.22827148 60.41113281 C98.25240965 63.85397421 83.54925147 64.69241505 68.25 64.625 C67.36848267 64.62284485 66.48696533 64.6206897 65.57873535 64.61846924 C33.46555572 64.49246379 5.55894109 56.88388941 -22 40.3125 C-22.95519531 39.74015625 -23.91039062 39.1678125 -24.89453125 38.578125 C-25.93673828 37.95164062 -25.93673828 37.95164062 -27 37.3125 C-27.09796875 38.34890625 -27.1959375 39.3853125 -27.296875 40.453125 C-27.4470002 41.82301741 -27.59809287 43.19280404 -27.75 44.5625 C-27.8428125 45.58537109 -27.8428125 45.58537109 -27.9375 46.62890625 C-28.32356964 49.94267064 -28.82009888 52.07109422 -30.828125 54.765625 C-33.1427867 56.414197 -34.19636443 56.85630681 -37 56.8125 C-37.99 56.82796875 -37.99 56.82796875 -39 56.84375 C-41.98736386 56.05023148 -43.15670957 54.77022057 -45 52.3125 C-46.92306584 41.33971255 -43.97101584 30.62709456 -38.0625 21.375 C-35.64558634 18.01549002 -33.08062721 15.09257822 -30 12.3125 C-29.52304688 11.83167969 -29.04609375 11.35085937 -28.5546875 10.85546875 C-20.8454595 3.5000459 -10.47000579 0.21073105 0 0 Z " fill="#221E1F" transform="translate(189,215.6875)"/>
</svg>
