<svg xmlns="http://www.w3.org/2000/svg" viewBox="0 0 191 97">
<!-- SVG created with Arrow, by QuiverAI (https://quiver.ai) -->
  <style type="text/css">.cls-0 {fill:none;stroke:#0D0D0D;stroke-width:1.7;stroke-linecap:round;stroke-linejoin:round;}
.cls-1 {fill:none;stroke:#1478FE;stroke-width:1.7;stroke-linecap:round;stroke-linejoin:round;}
.cls-2 {fill:#0D0D0D;}
.cls-3 {fill:#07C189;}
.cls-4 {fill:none;}</style>
  <polyline class="cls-0" points="31.1 8.8 33.3 5.5 34 5.2 34.6 5.6 36.7 8.6"/>
  <polyline class="cls-0" points="155.1 84.5 158.3 86.8 158.5 87.4 158.1 88 155.3 90.5"/>
  <path class="cls-0" d="m34.1 6.2c0 3.2-0.3 6.1 0 7.1 0.3 1.9-0.5 2.7 0 7.3 0.1 3.1-0.3 3.4-0.1 9.9 0.3 2.3 0.2 4.1 0 5.9-0.2 8 0.3 16.4 0 23.7-0.2 3.4 0.2 5.2 0 7.9"/>
  <path class="cls-0" d="m34.2 83.9 0.1 4.4c0.8 0.3 2.2-0.2 3.8 0.1 1.9 0 2.4 0 2.7-0.1 3.1-0.2 4.9-0.1 7.3 0.1 0.6 0 1.5-0.1 1.9 0 1.7 0.1 3.4 0.1 5-0.1 1.2 0.1 2.4-0.1 2.7-0.1 2.6-0.1 3.6 0.2 5.4 0.2 1.5 0 3 0 3.8-0.1 2.3 0 3-0.2 5.4 0 2.7 0 4.7 0.3 9.5-0.1 1.2 0 1.6 0.2 2.9 0 2.1-0.1 2.4-0.2 5.8 0.1 1.5 0 2.7 0.1 3.4 0 1.6 0.2 4-0.1 4.9 0 2.3-0.2 5.2 0 7.6 0 2.2-0.1 2.5-0.2 5 0.1 2 0 2.5 0.1 4 0.1 2.9 0 5.5-0.4 7.9-0.4 2.3 0 4.6 0.3 7.6 0.3 2.3 0.2 5.6 0.2 7.9 0 1-0.2 4.6 0 5.6-0.2 1.7 0.1 4-0.2 4.7-0.2 1 0 1.9 0.3 4 0 1.5-0.2 3.8-0.1 5-0.1"/>
  <path class="cls-2" d="m15.5 97h2c1.2-1 0.8-0.9 4.3-3 1.3-0.8 2.3-2.5 3.9-3.4l7.7-4c0.6-0.4 2.4-1.8 3.4-3.1 1.1-1.5 2.5-3.1 2.5-6.4-0.5-2.6-2.6-3.5-5.3-1.9-1.6 1.3-1.9 2.8-4.2 4.3-4.3 2.5-6.8 1.6-6.9-0.4-0.2-1.9 2.3-6.4 3.2-6.9 1.1-0.3 2.4-0.8 3.4-0.5 1.7 0.7 3 1.4 3.8 1.4v2.7l1.6-1.4v-1.8c0.8-0.1 2-0.9 1.9-2-0.1-1.5-1.5-2.6-2.6-3-4.3-2.2-5.5-2.2-6.3-2.1-0.3-2.5-4.6-4-7.7-3.6-0.9 0.1-1.6 0.5-2.3 1-1-0.9-3.8-1-5 0.1l-1.1 1.2c-2.6-1.1-4.6 1.3-5.4 5.2-0.8 3.1-1.4 5.8-1.4 8.6-0.5 5.6-0.5 9.9-3.5 13.8-0.3 0.1-0.8 1.4 0.3 1.6 1 0 4-4.5 4.3-9.2 0-4.1 0.3-6.2 1.5-13.6 0.4-3.2 2.5-6 3.6-5-0.6 1.9-1.5 4-1.3 5.8 0.3 0.7 1.2 0.5 1.2-0.5 1.3-4.7 1.7-7.7 5-7.4l0.7 0.1 0.1 0.2c-2 2.7-3.5 7.2-3.2 8.3 0.4 0.8 1.3 0 1.3-0.7 1.1-4 2.8-8.3 5.5-8.4 1.9-0.4 6.1 1 6 2.4-1.4 0.1-3.4 0.8-4.9 1.2-2.4 2.3-3.5 5-3.6 6.4 0.2 0.6 1.1 0.4 1.2-0.4 0.7-1.9 1.7-3.7 3.2-4.9 1.7-0.6 5.1-1.1 6.3-1.1 1.4 0 3.1 1 5.2 2.1 2.8 1.7 2.2 3.3-0.1 3.2-2.1-0.4-3.3-1.9-5.8-1.5-1.1 0.2-2.2 0.5-2.9 0.8-2.4 2.5-3.3 5.4-3.5 7.8 0.3 2.5 2 3.6 4.2 4 1.3 0 3.4-0.6 4.4-1.5 2.9-1.5 3.7-3.5 4.7-4.6 2.3-2.7 4.1-0.5 2.7 1.3l-2.2 3.6c-2.2 2.3-4.7 3.7-6.9 4.6-2.4 1.7-3.8 2-4.6 2.5-1.5 0.9-2.3 2.5-4.4 4-2.1 1.1-2.7 2.1-4 3.6"/>
  <path class="cls-1" d="m34.5 73.9c3.6-1.3 6.9-2.8 9.2-3.7 1.7-0.6 3.4-1.1 5.2-2.2 2.2-0.6 5.5-1.4 7.8-2.8l1.3-0.8c1.2-0.4 2.4-0.8 3.6-1.3 1.3-0.9 2.3-1.2 3.5-1.5 4.7-1.4 5.5-2.4 7.7-3.4 2.9-0.8 4.6-1.3 6.6-2.7 2.5-1.6 5.5-1.9 8.5-3.3 4.5-1.8 6.3-3.6 8.3-4.5 2.2-0.8 2.9-1.1 5.9-3.5 1.1-1.2 2.3-1.5 3-1.7l4.3-2.1c4-1.8 4-2.7 7.1-3.5 3.7-1.3 3.7-2 6.4-3.2s3.8-1.2 5.6-2.1c2.6-0.7 3.3-1.5 5.4-2.7 1.7-1.2 2.3-0.7 6-2.7 1.2-0.7 2.2-1.6 3.5-2.1 0.7-0.1 2.7-2.1 6-4.1l-0.3-0.6"/>
  <path class="cls-2" d="m179.8 38c-1.7-1.6-5.1-3-8.7-3.1-1.9-0.2-5.1 0.1-7-1.4-1.5-0.9-4.2-2.5-7-2.9-2.2-0.2-4-0.7-5-2-1.7-1.9-3.7-3.6-3.9-4.6-0.3-1.9 1.7-3 4.2-0.6 2.2 1.6 1.8 2 4.2 2.5 1.5 0.7 6.5 0.7 6.6-3.4 0-1.9-2.6-6.1-7.2-7.9-1-0.1-2.9-0.2-4.6-0.1-1.5 0.5-2.8 2.6-4.5 3.4-1.3 0.2-2.8-0.7-1.8-2.5 1.4-2.2 3.3-4.8 5.3-5.4 2-0.4 4.3 0 7.1 0.1 3 1 4.7 3.3 5.7 3.5 0.7-0.2 0.7-1.2-0.3-2-2.5-2.1-4.8-3.2-6.5-3.1-1.8-0.3-3-0.1-5-0.3-1.3-1.8 2.2-3.7 4.2-3.2 0.9 0 2 0.1 3.3 0.2 2.6 0.9 5.7 3.7 7.5 5.3 1.1 0.2 1.2-1.1 0.2-1.9-1.7-1.9-5-4.4-8.5-5.1 0.3-1.4 3-2.5 5.5-0.8 2.8 1.2 4.8 3.4 6.3 5.3 1.2 0.6 1.6-0.4 0.7-1.4-1.5-1.7-2.7-3.2-4.6-4.5 0-1.2 2.4-1.5 4.6 0.4 2.5 1.7 3.4 4.1 4.4 5.5 1.4 2.5 3.1 5.4 4.6 8.5 1.6 2.5 2 3.6 4.4 5.5 1.6 1.4 4.2 2.4 4.6 3 2 0.7 1.5-0.9 0.8-1.3-1.7-0.5-3.8-1.3-5.3-2.8l-1-1c-0.7-0.4-2-2.4-2.5-3-1-2.5-4.1-8.3-5.1-9.5-0.3-0.8-0.6-0.8-1.1-1.7-1.3-2-2-2.3-2.5-3.1-3-3-5.7-3.5-7.3-1.6h0.3l0.1 0.2h0.6l-1 0.4 0.4-0.6-0.4 0.6-0.9-0.1c-2.5-1.5-6.1-1.4-7.1 1.9-5-0.3-7.7 2.5-7 5.2-1.7 0.5-3 1.9-3.7 2.6-2 2-3.3 4.2-2 6.7 2.2 2.6 5 0.7 7-1.5 1.2-0.9 3-0.3 5-0.2 1.2 0.4 4 2.3 4.7 3.3 2 3.1 0.5 4.1-0.6 5-1.6 0.4-3.4-0.3-4.5-0.8-1.4-0.7-2.9-3.2-5.4-3.2-2.6-0.1-5 2.9-1.5 6.1 1.6 1.4 2.8 3.3 5 4.5 1.9 0.8 3.4 0.8 4.5 1 2.8 0.8 4.4 1.4 6.1 2.8 1.5 1 3.7 1.5 6 1.3 2.9 0 7 1.3 8.5 2.8 0.9 0.6 1.7-0.4 1.1-1z"/>
  <path class="cls-3" d="m50.2 57.2c-2.3 0-3.1 3.8-0.6 4.4 2.4 0.6 4.1-3.6 0.9-4.4"/>
  <path class="cls-3" d="m66.8 41.4c-2.2 0.7-2.9 4.3 0.3 4.5 2.3 0 3-4.5-0.3-4.5"/>
  <path class="cls-3" d="m83.2 45.1c-1.8 0.8-2.1 3.9 0.7 4.1 2.2-0.2 3.1-4.1 0-4.3"/>
  <path class="cls-3" d="m101.9 30c-2.3 0.7-3 4.4 0.2 4.5 2.3 0 3.3-4.1 0-4.5"/>
  <path class="cls-3" d="m100.1 56c-2.2 0.7-2.6 4.1 0.1 4 2.4 0 3.2-3.8 0.2-4"/>
  <path class="cls-3" d="m86.6 66.9c-2 0.5-2.5 4 0.3 4.1 2.3 0 3.6-3.8 0.2-4.3"/>
  <path class="cls-3" d="m70.6 68.7c-2 0.9-2.2 4.4 0.6 4.2 2.2-0.2 3.2-4-0.1-4.3"/>
  <path class="cls-3" d="m115.2 42.6c-2.1 0.3-2.6 4.1 0.3 4.1 2.4-0.1 3.1-4 0.1-4.1"/>
  <path class="cls-3" d="m125 22c-2.1 0.6-2.8 4.4 0.5 4.7 2.4-0.1 3.4-4.3 0-4.7"/>
  <path class="cls-3" d="m144.4 35c-2 1-2 4 0.6 3.9 2.4-0.3 2.9-4.3 0-4.2"/>
  <path class="cls-3" d="m131.8 50.8c-1.8 1.2-1.8 4.1 0.6 4.2 2.5 0.2 3.2-4.1 0.2-4.4"/>
  <rect class="cls-4" width="191" height="97"/>
</svg>