<svg xmlns="http://www.w3.org/2000/svg" viewBox="0 0 120 80">
<!-- SVG created with Arrow, by QuiverAI (https://quiver.ai) -->
  <style type="text/css">.cls-0 {fill:#0D0D0D;}</style>
  <path class="cls-0" d="m118 75.5-2.4-1.7c-0.3-0.2-0.6-0.4-0.8-0.3-0.3 0.1-0.3 0.7 0.2 1.2l1 0.9-0.5 0.3c-4.2 0-8.3 0-12.3 0.2-1 0-2 0.2-3.2 0.2-1 0-2.1 0.2-5.4 0-2.6-0.2-10.2-0.3-12-0.2-1 0.1-3.4 0.1-5.1 0.3l-4.4-0.3c-6.4 0-13.2 0.1-19 0h-5.5c-1.9 0.1-5 0.2-7.8 0.2-4.2-0.1-14.1 0-16.3 0-7 0.2-9.6 0.2-11.3-0.1-2.7 0.2-4.7 0.4-7.9 0.3-0.2-1.4 0-29.2-0.1-35.2 0-5.9-0.1-25.7-0.1-38.6l1.1 1.4c0.6 0.8 1.7 0.2 1-0.6l-2-2.8c-0.4-0.6-1.6-0.8-2.3 0.4l-1.3 2.1c-0.5 0.7-0.2 1.7 0.6 1.4l1.5-1.9c0 12.9-0.1 32.4 0 42.4l0.2 29.9c0.1 1.6 0.3 2.3 0.7 2.9h17.7c8-0.1 16-0.1 23.6-0.1l6.1-0.1c2.5 0 4.9 0 6.3 0.1 3.1 0 5.7 0 8.1-0.1 3.9-0.1 8 0 12.8 0.1 1.7 0 3.6 0 4.7-0.1l3-0.1h0.2l3.6 0.1c3.9 0.1 8.1 0.1 12.3 0l2.2-0.1c3.2 0 7-0.2 11-0.2l-1.1 1.2c-0.8 0.8 0 1.8 0.8 1 2.9-2.2 2.9-2.8 2.7-3.4l-0.6-0.7z"/>
</svg>